<svg xmlns="http://www.w3.org/2000/svg" fill="currentColor" viewBox="0 0 24 24">
  <rect width="24" height="24" fill="#898088" rx="6"/>
  <g fill="#F3F3F3">
    <path d="M19.308 12.466a8.41 8.41 0 0 0-.133-1.493H12.3v2.823h3.928A3.358 3.358 0 0 1 14.773 16v1.831h2.36c1.38-1.27 2.176-3.142 2.176-5.365Z"/>
    <path d="M12.3 19.6c1.97 0 3.623-.654 4.831-1.769L14.772 16c-.654.438-1.49.697-2.472.697-1.901 0-3.51-1.284-4.085-3.01H5.776v1.891A7.297 7.297 0 0 0 12.3 19.6Z"/>
    <path d="M8.215 13.687a4.388 4.388 0 0 1-.229-1.387c0-.481.083-.95.23-1.387V9.02h-2.44A7.297 7.297 0 0 0 5 12.3c0 1.178.282 2.293.776 3.278l2.44-1.891Z"/>
    <path d="M12.3 7.903c1.072 0 2.034.369 2.79 1.092l2.094-2.094C15.92 5.723 14.268 5 12.3 5a7.297 7.297 0 0 0-6.524 4.022l2.44 1.891c.573-1.725 2.183-3.01 4.084-3.01Z"/>
  </g>
</svg>
