<svg xmlns="http://www.w3.org/2000/svg" fill="currentColor" viewBox="0 0 24 24">
  <rect width="24" height="24" fill="#898088" rx="6"/>
  <path fill="#F3F3F3" d="M12.2 16.55c-2.396 0-3.49-1.22-3.49-2.116a.776.776 0 0 1 .819-.776c1.025 0 .757 1.539 2.67 1.539.979 0 1.553-.59 1.553-1.142 0-.333-.19-.713-.836-.864l-2.136-.54c-1.717-.436-2.016-1.39-2.016-2.276 0-1.838 1.681-2.502 3.281-2.502 1.475 0 3.227.814 3.227 1.915 0 .475-.397.73-.857.73-.876 0-.73-1.23-2.49-1.23-.877 0-1.337.41-1.337.985 0 .574.681.769 1.28.9l1.576.356c1.728.389 2.188 1.403 2.188 2.374 0 1.493-1.156 2.647-3.435 2.647h.003Zm6.614-3.16c.068-.392.102-.79.102-1.187A6.747 6.747 0 0 0 11 5.529 3.97 3.97 0 0 0 9.01 5a4.036 4.036 0 0 0-3.482 6.033 6.752 6.752 0 0 0 7.815 7.858 3.97 3.97 0 0 0 1.987.529 4.036 4.036 0 0 0 3.483-6.03Z"/>
</svg>
