<svg width="30" height="30" viewBox="0 0 30 30" fill="none" xmlns="http://www.w3.org/2000/svg">
<g id="Flag_finish">
<path id="Rectangle 1" d="M7.5 16.25V6.75C7.5 6.5143 7.5 6.39645 7.57322 6.32322C7.64645 6.25 7.7643 6.25 8 6.25H13.132C13.4327 6.25 13.583 6.25 13.7038 6.32467C13.8247 6.39935 13.8919 6.53383 14.0264 6.80279L14.7236 8.19721C14.8581 8.46617 14.9253 8.60065 15.0462 8.67533C15.167 8.75 15.3173 8.75 15.618 8.75H22C22.2357 8.75 22.3536 8.75 22.4268 8.82322C22.5 8.89645 22.5 9.0143 22.5 9.25V18.25C22.5 18.4857 22.5 18.6036 22.4268 18.6768C22.3536 18.75 22.2357 18.75 22 18.75H15.618C15.3173 18.75 15.167 18.75 15.0462 18.6753C14.9253 18.6007 14.8581 18.4662 14.7236 18.1972L14.0264 16.8028C13.8919 16.5338 13.8247 16.3993 13.7038 16.3247C13.583 16.25 13.4327 16.25 13.132 16.25H7.5ZM7.5 16.25V23.75" stroke="#FFB701" stroke-width="2" stroke-linecap="round"/>
</g>
</svg>
