<svg xmlns="http://www.w3.org/2000/svg" fill="currentColor" viewBox="0 0 24 24">
  <g class="lightning">
    <path d="m16.278 10.662.842-.539c.38.594.295 1.222.153 1.704-.132.45-.38.986-.651 1.57l-.03.063-2.73 5.9-.023.048c-.168.362-.327.707-.473.95a1.88 1.88 0 0 1-.364.454c-.19.166-.553.377-1.02.274a1.164 1.164 0 0 1-.812-.677 1.878 1.878 0 0 1-.14-.565c-.03-.282-.03-.662-.03-1.061V14.8h-.94c-.644 0-1.235 0-1.698-.069-.497-.073-1.103-.26-1.482-.854m9.398-3.216L6.88 13.878m9.398-3.216.842-.538c-.38-.594-.985-.78-1.482-.854-.463-.07-1.054-.07-1.698-.069H13V5.217c0-.4 0-.779-.03-1.061a1.878 1.878 0 0 0-.14-.565 1.164 1.164 0 0 0-.811-.677 1.164 1.164 0 0 0-1.02.274c-.173.15-.29.33-.365.453-.146.244-.305.589-.473.95l-.022.049-2.732 5.9-.029.063c-.27.584-.519 1.12-.651 1.57-.142.482-.227 1.11.153 1.704m9.398-3.216L6.88 13.878m5.495-9.247Zm-1.4-.305Zm.65 15.045.002-.003-.002.003Zm1.4.308v-.003.003Z" class="Vector 29"/>
  </g>
</svg>
