<svg xmlns="http://www.w3.org/2000/svg" fill="currentColor" viewBox="0 0 30 30">
  <path d="m15.4 24.805-.454-.89.454.89Zm-.8 0 .454-.89-.454.89Zm8.15-11.055c0 2.824-1.465 5.129-3.236 6.884-1.77 1.754-3.755 2.866-4.568 3.28l.908 1.782c.902-.46 3.09-1.682 5.068-3.641 1.975-1.958 3.828-4.743 3.828-8.305h-2ZM15 6a7.75 7.75 0 0 1 7.75 7.75h2A9.75 9.75 0 0 0 15 4v2Zm-7.75 7.75A7.75 7.75 0 0 1 15 6V4a9.75 9.75 0 0 0-9.75 9.75h2Zm7.804 10.164c-.813-.414-2.799-1.526-4.568-3.28-1.771-1.755-3.236-4.06-3.236-6.884h-2c0 3.562 1.853 6.347 3.828 8.305 1.977 1.959 4.166 3.181 5.068 3.64l.908-1.78Zm-.108 0a.122.122 0 0 1 .054-.012.13.13 0 0 1 .054.012l-.908 1.782c.539.275 1.17.275 1.708 0l-.908-1.782ZM17.75 13.75A2.75 2.75 0 0 1 15 16.5v2a4.75 4.75 0 0 0 4.75-4.75h-2ZM15 11a2.75 2.75 0 0 1 2.75 2.75h2A4.75 4.75 0 0 0 15 9v2Zm-2.75 2.75A2.75 2.75 0 0 1 15 11V9a4.75 4.75 0 0 0-4.75 4.75h2ZM15 16.5a2.75 2.75 0 0 1-2.75-2.75h-2A4.75 4.75 0 0 0 15 18.5v-2Z"/>
</svg>
