<svg xmlns="http://www.w3.org/2000/svg" fill="currentColor" viewBox="0 0 14 17">
  <path d="M7 12.857c.838 0 1.524-.685 1.524-1.524 0-.838-.686-1.523-1.524-1.523s-1.523.685-1.523 1.523c0 .838.685 1.524 1.523 1.524Z"/>
  <path d="M11.572 6h-.762V4.476A3.811 3.811 0 0 0 7 .666a3.81 3.81 0 0 0-3.81 3.81V6h-.76C1.59 6 .905 6.686.905 7.524v7.619c0 .838.685 1.523 1.524 1.523h9.142c.838 0 1.524-.685 1.524-1.523v-7.62c0-.837-.685-1.523-1.524-1.523ZM4.638 4.476A2.364 2.364 0 0 1 7 2.114a2.364 2.364 0 0 1 2.362 2.362V6H4.638V4.476Zm6.934 10.667H2.428v-7.62h9.142v7.62Z"/>
</svg>
